#  wavefront obj file written by the visualization toolkit

mtllib trimesh_ex1.mtl

v 0 0 1
v -1 -1.2246468525851679e-16 0
v -0.6234897971153259 -0.7818315029144287 0
v 0.22252093255519867 -0.9749279022216797 0
v 0.9009688496589661 -0.4338837265968323 0
v 0.9009688496589661 0.4338837265968323 0
v 0.22252093255519867 0.9749279022216797 0
v -0.6234897971153259 0.7818315029144287 0
v -1 1.2246468525851679e-16 0
v 0 0 1
v 0 0 1
v 0 0 1
v 0 0 1
v 0 0 1
v 0 0 1
v -0.6234897971153259 -0.7818315029144287 0
v 0.22252093255519867 -0.9749279022216797 0
v 0.9009688496589661 -0.4338837265968323 0
v 0.9009688496589661 0.4338837265968323 0
v 0.22252093255519867 0.9749279022216797 0
v -0.6234897971153259 0.7818315029144287 0
vn -0.6693623065948486 -0.3223479092121124 0.6693623065948486
vn -0.6693623065948486 -0.3223479092121124 0.6693623065948486
vn -0.6693623065948486 -0.3223479092121124 0.6693623065948486
vn -0.16531884670257568 -0.7243091464042664 0.6693623065948486
vn 0.46321308612823486 -0.5808508396148682 0.6693623065948486
vn 0.7429361343383789 0 0.6693623065948486
vn 0.46321308612823486 0.5808508396148682 0.6693623065948486
vn -0.16531884670257568 0.7243091464042664 0.6693623065948486
vn -0.6693623065948486 0.3223479092121124 0.6693623065948486
vn -0.16531884670257568 -0.7243091464042664 0.6693623065948486
vn 0.46321308612823486 -0.5808508396148682 0.6693623065948486
vn 0.7429361343383789 0 0.6693623065948486
vn 0.46321308612823486 0.5808508396148682 0.6693623065948486
vn -0.16531884670257568 0.7243091464042664 0.6693623065948486
vn -0.6693623065948486 0.3223479092121124 0.6693623065948486
vn -0.16531884670257568 -0.7243091464042664 0.6693623065948486
vn 0.46321308612823486 -0.5808508396148682 0.6693623065948486
vn 0.7429361343383789 0 0.6693623065948486
vn 0.46321308612823486 0.5808508396148682 0.6693623065948486
vn -0.16531884670257568 0.7243091464042664 0.6693623065948486
vn -0.6693623065948486 0.3223479092121124 0.6693623065948486

g grp1
usemtl mtl1
f 1//1 2//2 3//3 
f 10//10 16//16 4//4 
f 11//11 17//17 5//5 
f 12//12 18//18 6//6 
f 13//13 19//19 7//7 
f 14//14 20//20 8//8 
f 15//15 21//21 9//9 
